<svg width="23" height="22" viewBox="0 0 23 22" fill="none" xmlns="http://www.w3.org/2000/svg">
<path d="M16.9374 9.85417C16.5432 9.85417 16.2315 9.53333 16.2315 9.14833C16.2315 8.80916 15.8924 8.10333 15.324 7.48917C14.7649 6.89333 14.1507 6.545 13.6374 6.545C13.2432 6.545 12.9315 6.22416 12.9315 5.83916C12.9315 5.45416 13.2524 5.13333 13.6374 5.13333C14.554 5.13333 15.5165 5.62833 16.3599 6.5175C17.1482 7.35167 17.6524 8.3875 17.6524 9.13917C17.6524 9.53333 17.3316 9.85417 16.9374 9.85417Z" fill="#F5EEFF"/>
<path d="M20.2465 9.85418C19.8524 9.85418 19.5407 9.53334 19.5407 9.14834C19.5407 5.89418 16.8915 3.25418 13.6465 3.25418C13.2524 3.25418 12.9407 2.93334 12.9407 2.54834C12.9407 2.16334 13.2524 1.83334 13.6374 1.83334C17.6707 1.83334 20.9524 5.11501 20.9524 9.14834C20.9524 9.53334 20.6315 9.85418 20.2465 9.85418Z" fill="#F5EEFF"/>
<path opacity="0.4" d="M11.5932 13.0258L8.59572 16.0233C8.26572 15.73 7.94488 15.4275 7.63322 15.1158C6.68905 14.1625 5.83655 13.1633 5.07572 12.1183C4.32405 11.0733 3.71905 10.0283 3.27905 8.99251C2.83905 7.94751 2.61905 6.94834 2.61905 5.99501C2.61905 5.37168 2.72905 4.77584 2.94905 4.22584C3.16905 3.66668 3.51738 3.15334 4.00322 2.69501C4.58988 2.11751 5.23155 1.83334 5.90988 1.83334C6.16655 1.83334 6.42322 1.88834 6.65238 1.99834C6.89072 2.10834 7.10155 2.27334 7.26655 2.51168L9.39322 5.50918C9.55822 5.73834 9.67738 5.94918 9.75988 6.15084C9.84238 6.34334 9.88822 6.53584 9.88822 6.71001C9.88822 6.93001 9.82405 7.15001 9.69572 7.36084C9.57655 7.57168 9.40238 7.79168 9.18238 8.01168L8.48572 8.73584C8.38488 8.83668 8.33905 8.95584 8.33905 9.10251C8.33905 9.17584 8.34822 9.24001 8.36655 9.31334C8.39405 9.38668 8.42155 9.44168 8.43988 9.49668C8.60488 9.79918 8.88905 10.1933 9.29238 10.67C9.70488 11.1467 10.1449 11.6325 10.6215 12.1183C10.9515 12.4392 11.2724 12.7508 11.5932 13.0258Z" fill="#F5EEFF"/>
<path d="M20.9249 16.8025C20.9249 17.0592 20.879 17.325 20.7874 17.5817C20.7599 17.655 20.7324 17.7283 20.6957 17.8017C20.5399 18.1317 20.3382 18.4433 20.0724 18.7367C19.6232 19.2317 19.1282 19.5892 18.569 19.8183C18.5599 19.8183 18.5507 19.8275 18.5415 19.8275C18.0007 20.0475 17.414 20.1667 16.7815 20.1667C15.8465 20.1667 14.8474 19.9467 13.7932 19.4975C12.739 19.0483 11.6849 18.4433 10.6399 17.6825C10.2824 17.4167 9.92486 17.1508 9.58569 16.8667L12.5832 13.8692C12.8399 14.0617 13.069 14.2083 13.2615 14.3092C13.3074 14.3275 13.3624 14.355 13.4265 14.3825C13.4999 14.41 13.5732 14.4192 13.6557 14.4192C13.8115 14.4192 13.9307 14.3642 14.0315 14.2633L14.7282 13.5758C14.9574 13.3467 15.1774 13.1725 15.3882 13.0625C15.599 12.9342 15.8099 12.87 16.039 12.87C16.2132 12.87 16.3965 12.9067 16.5982 12.9892C16.7999 13.0717 17.0107 13.1908 17.2399 13.3467L20.274 15.5008C20.5124 15.6658 20.6774 15.8583 20.7782 16.0875C20.8699 16.3167 20.9249 16.5458 20.9249 16.8025Z" fill="#F5EEFF"/>
</svg>
