<svg width="14" height="14" viewBox="0 0 14 14" fill="none" xmlns="http://www.w3.org/2000/svg">
<path d="M7.30358 0.517853C3.72321 0.517853 0.821442 3.41962 0.821442 7C0.821442 9.74731 2.5306 12.092 4.94115 13.0365C4.88544 12.5225 4.83227 11.7375 4.96394 11.1779C5.08294 10.6715 5.72356 7.95712 5.72356 7.95712C5.72356 7.95712 5.52859 7.56972 5.52859 6.99493C5.52859 6.09351 6.0502 5.41997 6.70095 5.41997C7.25294 5.41997 7.52134 5.83524 7.52134 6.33406C7.52134 6.89112 7.16685 7.72164 6.98454 8.49139C6.83262 9.13708 7.30865 9.66375 7.9442 9.66375C9.0963 9.66375 9.98253 8.44835 9.98253 6.69615C9.98253 5.14398 8.86841 4.05771 7.27573 4.05771C5.43237 4.05771 4.34864 5.44023 4.34864 6.87086C4.34864 7.42792 4.56387 8.02549 4.83227 8.3496C4.88544 8.4129 4.89304 8.47114 4.87785 8.53444C4.82974 8.73954 4.71832 9.18012 4.69807 9.26875C4.67021 9.38775 4.60438 9.41308 4.48031 9.35484C3.67004 8.97756 3.16362 7.79507 3.16362 6.84301C3.16362 4.79708 4.64996 2.9208 7.44538 2.9208C9.69388 2.9208 11.441 4.52362 11.441 6.66576C11.441 8.89906 10.0332 10.6968 8.0784 10.6968C7.42259 10.6968 6.80476 10.355 6.59207 9.95241C6.59207 9.95241 6.26796 11.1906 6.18947 11.4945C6.04261 12.0566 5.6476 12.763 5.38426 13.1935C5.99196 13.3809 6.63511 13.4821 7.30358 13.4821C10.884 13.4821 13.7857 10.5804 13.7857 7C13.7857 3.41962 10.884 0.517853 7.30358 0.517853Z" fill="white"/>
</svg>
