<svg width="14" height="14" viewBox="0 0 14 14" fill="none" xmlns="http://www.w3.org/2000/svg">
<path d="M12.9332 0.517853H1.88572C1.35651 0.517853 0.928589 0.935647 0.928589 1.45219V12.5453C0.928589 13.0618 1.35651 13.4821 1.88572 13.4821H12.9332C13.4624 13.4821 13.8929 13.0618 13.8929 12.5478V1.45219C13.8929 0.935647 13.4624 0.517853 12.9332 0.517853ZM4.77483 11.5653H2.85044V5.37693H4.77483V11.5653ZM3.81264 4.53374C3.19481 4.53374 2.69599 4.03492 2.69599 3.41962C2.69599 2.80433 3.19481 2.30551 3.81264 2.30551C4.42793 2.30551 4.92675 2.80433 4.92675 3.41962C4.92675 4.03239 4.42793 4.53374 3.81264 4.53374ZM11.9761 11.5653H10.0542V8.55723C10.0542 7.84065 10.0416 6.91644 9.05406 6.91644C8.05388 6.91644 7.90196 7.69885 7.90196 8.50659V11.5653H5.98264V5.37693H7.82599V6.22265H7.85131C8.10706 5.73648 8.73501 5.22247 9.66935 5.22247C11.6165 5.22247 11.9761 6.50371 11.9761 8.16982V11.5653V11.5653Z" fill="white"/>
</svg>
