<svg width="14" height="14" viewBox="0 0 14 14" fill="none" xmlns="http://www.w3.org/2000/svg">
<path d="M7.44644 1.68514C9.17839 1.68514 9.38348 1.69274 10.0646 1.72313C10.6976 1.75098 11.0395 1.85733 11.2674 1.94595C11.5687 2.06243 11.7864 2.20422 12.0118 2.42958C12.2397 2.65747 12.3789 2.87269 12.4954 3.17401C12.584 3.4019 12.6904 3.74626 12.7182 4.37675C12.7486 5.06042 12.7562 5.26552 12.7562 6.99493C12.7562 8.72688 12.7486 8.93198 12.7182 9.61311C12.6904 10.2461 12.584 10.588 12.4954 10.8159C12.3789 11.1172 12.2371 11.3349 12.0118 11.5603C11.7839 11.7882 11.5687 11.9274 11.2674 12.0439C11.0395 12.1325 10.6951 12.2389 10.0646 12.2667C9.38095 12.2971 9.17585 12.3047 7.44644 12.3047C5.71449 12.3047 5.50939 12.2971 4.82826 12.2667C4.19524 12.2389 3.85341 12.1325 3.62552 12.0439C3.3242 11.9274 3.10644 11.7856 2.88108 11.5603C2.6532 11.3324 2.51393 11.1172 2.39746 10.8159C2.30883 10.588 2.20249 10.2436 2.17463 9.61311C2.14425 8.92945 2.13665 8.72435 2.13665 6.99493C2.13665 5.26298 2.14425 5.05788 2.17463 4.37675C2.20249 3.74373 2.30883 3.4019 2.39746 3.17401C2.51393 2.87269 2.65573 2.65493 2.88108 2.42958C3.10897 2.20169 3.3242 2.06243 3.62552 1.94595C3.85341 1.85733 4.19777 1.75098 4.82826 1.72313C5.50939 1.69274 5.71449 1.68514 7.44644 1.68514ZM7.44644 0.517853C5.68664 0.517853 5.46635 0.525449 4.77509 0.555834C4.08636 0.586219 3.61286 0.697631 3.20266 0.857152C2.77474 1.02427 2.41265 1.24456 2.05309 1.60665C1.691 1.96621 1.47071 2.3283 1.30359 2.75369C1.14407 3.16642 1.03266 3.63738 1.00228 4.32611C0.971891 5.0199 0.964294 5.2402 0.964294 7C0.964294 8.7598 0.971891 8.98009 1.00228 9.67135C1.03266 10.3601 1.14407 10.8336 1.30359 11.2438C1.47071 11.6717 1.691 12.0338 2.05309 12.3933C2.41265 12.7529 2.77474 12.9757 3.20013 13.1403C3.61286 13.2998 4.08383 13.4112 4.77255 13.4416C5.46381 13.472 5.6841 13.4796 7.44391 13.4796C9.20371 13.4796 9.424 13.472 10.1153 13.4416C10.804 13.4112 11.2775 13.2998 11.6877 13.1403C12.1131 12.9757 12.4752 12.7529 12.8347 12.3933C13.1943 12.0338 13.4171 11.6717 13.5817 11.2463C13.7412 10.8336 13.8526 10.3626 13.883 9.67388C13.9134 8.98262 13.921 8.76233 13.921 7.00253C13.921 5.24273 13.9134 5.02244 13.883 4.33118C13.8526 3.64245 13.7412 3.16895 13.5817 2.75875C13.4222 2.3283 13.2019 1.96621 12.8398 1.60665C12.4802 1.24709 12.1181 1.02427 11.6927 0.859685C11.28 0.700163 10.809 0.588751 10.1203 0.558366C9.42653 0.525449 9.20624 0.517853 7.44644 0.517853Z" fill="white"/>
<path d="M7.44642 3.67029C5.60813 3.67029 4.11673 5.16169 4.11673 6.99998C4.11673 8.83828 5.60813 10.3297 7.44642 10.3297C9.28472 10.3297 10.7761 8.83828 10.7761 6.99998C10.7761 5.16169 9.28472 3.67029 7.44642 3.67029ZM7.44642 9.15985C6.25381 9.15985 5.28655 8.1926 5.28655 6.99998C5.28655 5.80737 6.25381 4.84011 7.44642 4.84011C8.63904 4.84011 9.60629 5.80737 9.60629 6.99998C9.60629 8.1926 8.63904 9.15985 7.44642 9.15985Z" fill="white"/>
<path d="M11.6852 3.53861C11.6852 3.96907 11.3357 4.31596 10.9078 4.31596C10.4774 4.31596 10.1305 3.96654 10.1305 3.53861C10.1305 3.10816 10.4799 2.76126 10.9078 2.76126C11.3357 2.76126 11.6852 3.11069 11.6852 3.53861Z" fill="white"/>
</svg>
