<svg width="14" height="10" viewBox="0 0 14 10" fill="none" xmlns="http://www.w3.org/2000/svg">
<path d="M13.728 2.40716C13.728 2.40716 13.6014 1.51333 13.2115 1.12086C12.7177 0.604314 12.1657 0.601781 11.9125 0.571396C10.0995 0.439728 7.37753 0.439728 7.37753 0.439728H7.37246C7.37246 0.439728 4.65047 0.439728 2.8375 0.571396C2.58429 0.601781 2.03229 0.604314 1.53854 1.12086C1.14859 1.51333 1.02452 2.40716 1.02452 2.40716C1.02452 2.40716 0.892853 3.45798 0.892853 4.50626V5.48871C0.892853 6.53699 1.02199 7.58781 1.02199 7.58781C1.02199 7.58781 1.14859 8.48164 1.536 8.87411C2.02976 9.39066 2.67797 9.37293 2.96663 9.42864C4.00479 9.52739 7.375 9.55777 7.375 9.55777C7.375 9.55777 10.0995 9.55271 11.9125 9.42357C12.1657 9.39319 12.7177 9.39066 13.2115 8.87411C13.6014 8.48164 13.728 7.58781 13.728 7.58781C13.728 7.58781 13.8571 6.53953 13.8571 5.48871V4.50626C13.8571 3.45798 13.728 2.40716 13.728 2.40716ZM6.03552 6.68132V3.03765L9.5374 4.86582L6.03552 6.68132Z" fill="white"/>
</svg>
