<svg width="14" height="14" viewBox="0 0 14 14" fill="none" xmlns="http://www.w3.org/2000/svg">
<path fill-rule="evenodd" clip-rule="evenodd" d="M13.8214 7C13.8214 10.58 10.9193 13.4821 7.33929 13.4821C3.7593 13.4821 0.857147 10.58 0.857147 7C0.857147 3.42001 3.7593 0.517853 7.33929 0.517853C10.9193 0.517853 13.8214 3.42001 13.8214 7ZM7.57158 5.30326C6.9411 5.5655 5.68102 6.10827 3.79134 6.93157C3.48449 7.05359 3.32374 7.17297 3.30911 7.28969C3.28438 7.48696 3.53142 7.56464 3.86782 7.67042C3.91358 7.68481 3.96099 7.69972 4.0096 7.71552C4.34056 7.8231 4.78577 7.94897 5.01722 7.95397C5.22716 7.9585 5.46148 7.87195 5.72018 7.69431C7.48576 6.50249 8.39717 5.90009 8.45439 5.8871C8.49475 5.87794 8.55069 5.86642 8.5886 5.90011C8.6265 5.9338 8.62277 5.9976 8.61876 6.01471C8.59429 6.11904 7.62458 7.02057 7.12275 7.48711C6.9663 7.63256 6.85533 7.73573 6.83265 7.75929C6.78183 7.81207 6.73004 7.862 6.68026 7.90998C6.37279 8.20639 6.14221 8.42867 6.69303 8.79165C6.95773 8.96609 7.16955 9.11034 7.38087 9.25424C7.61164 9.4114 7.84182 9.56815 8.13963 9.76337C8.2155 9.8131 8.28797 9.86477 8.35855 9.91508C8.62711 10.1065 8.8684 10.2786 9.16649 10.2511C9.3397 10.2352 9.51862 10.0723 9.60949 9.58656C9.82423 8.43857 10.2463 5.95121 10.3439 4.92624C10.3524 4.83643 10.3417 4.72151 10.333 4.67106C10.3244 4.6206 10.3064 4.54872 10.2408 4.49551C10.1631 4.43249 10.0432 4.4192 9.9896 4.42015C9.7458 4.42444 9.37174 4.55451 7.57158 5.30326Z" fill="white"/>
</svg>
