<svg width="13" height="12" viewBox="0 0 13 12" fill="none" xmlns="http://www.w3.org/2000/svg">
<path d="M4.07843 11.2667C8.96941 11.2667 11.6453 7.21364 11.6453 3.69986C11.6453 3.58592 11.6428 3.46944 11.6377 3.3555C12.1583 2.97905 12.6075 2.51276 12.9643 1.97855C12.4795 2.19424 11.9648 2.33511 11.4377 2.39634C11.9927 2.06369 12.4082 1.5411 12.6073 0.925453C12.0852 1.23486 11.5142 1.45312 10.9189 1.57088C10.5177 1.14465 9.98735 0.862441 9.40974 0.767874C8.83213 0.673308 8.23945 0.771655 7.72333 1.04771C7.20722 1.32377 6.79642 1.76216 6.55444 2.2951C6.31247 2.82804 6.2528 3.42586 6.38466 3.99612C5.32751 3.94307 4.29331 3.66845 3.3491 3.19006C2.40489 2.71168 1.57175 2.0402 0.903702 1.21918C0.564162 1.80458 0.460263 2.49731 0.613119 3.15657C0.765976 3.81582 1.16412 4.39215 1.72663 4.7684C1.30433 4.75499 0.891282 4.64129 0.52161 4.4367V4.46962C0.521232 5.08395 0.733615 5.67947 1.12266 6.15492C1.5117 6.63038 2.05339 6.95644 2.65565 7.07767C2.26446 7.1847 1.85388 7.20029 1.4557 7.12324C1.62564 7.65158 1.9563 8.11368 2.40151 8.44504C2.84672 8.77641 3.38428 8.96052 3.93917 8.97167C2.99714 9.71164 1.83346 10.113 0.635554 10.1111C0.423115 10.1108 0.210885 10.0978 0 10.0721C1.21694 10.8528 2.63258 11.2675 4.07843 11.2667Z" fill="white"/>
</svg>
